<svg xmlns="http://www.w3.org/2000/svg" xmlns:xlink="http://www.w3.org/1999/xlink" width="150" zoomAndPan="magnify" viewBox="0 0 112.5 112.499997" height="150" preserveAspectRatio="xMidYMid meet" version="1.0"><defs><clipPath id="9a2303751e"><path d="M 5.601562 51 L 106.402344 51 L 106.402344 61 L 5.601562 61 Z M 5.601562 51 " clip-rule="nonzero"/></clipPath><clipPath id="901706fdf0"><path d="M 5.601562 19.648438 L 106.402344 19.648438 L 106.402344 29 L 5.601562 29 Z M 5.601562 19.648438 " clip-rule="nonzero"/></clipPath><clipPath id="92f5c9b4ef"><path d="M 5.601562 83 L 106.402344 83 L 106.402344 92.078125 L 5.601562 92.078125 Z M 5.601562 83 " clip-rule="nonzero"/></clipPath></defs><g clip-path="url(#9a2303751e)"><path fill="#9f8189" d="M 102.136719 60.191406 L 9.867188 60.191406 C 7.550781 60.191406 5.671875 58.3125 5.671875 55.996094 C 5.671875 53.683594 7.550781 51.804688 9.867188 51.804688 L 102.136719 51.804688 C 104.449219 51.804688 106.328125 53.683594 106.328125 55.996094 C 106.328125 58.3125 104.449219 60.191406 102.136719 60.191406 Z M 102.136719 60.191406 " fill-opacity="1" fill-rule="nonzero"/></g><g clip-path="url(#901706fdf0)"><path fill="#9f8189" d="M 102.136719 28.039062 L 9.867188 28.039062 C 7.550781 28.039062 5.671875 26.160156 5.671875 23.84375 C 5.671875 21.527344 7.550781 19.648438 9.867188 19.648438 L 102.136719 19.648438 C 104.449219 19.648438 106.328125 21.527344 106.328125 23.84375 C 106.328125 26.160156 104.449219 28.039062 102.136719 28.039062 Z M 102.136719 28.039062 " fill-opacity="1" fill-rule="nonzero"/></g><g clip-path="url(#92f5c9b4ef)"><path fill="#9f8189" d="M 102.136719 92.347656 L 9.867188 92.347656 C 7.550781 92.347656 5.671875 90.46875 5.671875 88.152344 C 5.671875 85.835938 7.550781 83.957031 9.867188 83.957031 L 102.136719 83.957031 C 104.449219 83.957031 106.328125 85.835938 106.328125 88.152344 C 106.328125 90.46875 104.449219 92.347656 102.136719 92.347656 Z M 102.136719 92.347656 " fill-opacity="1" fill-rule="nonzero"/></g></svg>